<?xml version="1.0" encoding="utf-8"?>
<!-- Generator: Adobe Illustrator 26.0.3, SVG Export Plug-In . SVG Version: 6.00 Build 0)  -->
<svg version="1.1" id="Layer_1" xmlns="http://www.w3.org/2000/svg" xmlns:xlink="http://www.w3.org/1999/xlink" x="0px" y="0px" viewBox="0 0 402.8 325" style="enable-background: new 0 0 402.8 325" xml:space="preserve">
<style>.st0 {
  fill: none;
}

</style>
<g>
	<path d="M142.2,41.3c0.9-0.2,2.4-0.4,4.7-0.4c2.3,0,4.7,0.3,7.3,1c2.6,0.7,5,1.8,7.3,3.4c2.3,1.6,3.8,3.9,4.6,6.9
		c0.6,2.2-0.3,4.1-2.6,5.9c-2.3,1.8-5.5,4.7-9.7,8.9c-4.2,4.2-9.1,10.3-14.8,18.4c-5.7,8-11.7,19.3-18,33.9
		c-0.8,2.1-2.6,2.4-5.3,0.9c-2.7-1.5-4.6-4.4-5.7-8.7c-1-3.7-1-7.9-0.1-12.9c0.9-4.9,2.2-10.1,4.1-15.4c-9.8,6.3-19,14.5-27.6,24.7
		C77.7,118,70,129.4,63.1,142.1c-6.9,12.6-12.9,25.9-17.9,39.9c-5.1,14-8.9,27.9-11.6,41.7c-2.7,13.8-4.2,27-4.6,39.6
		c-0.4,12.6,0.7,23.8,3.3,33.4c1.4,5.2,2.8,8.3,4.4,9.5c1.6,1.2,3.4,1.5,5.6,0.9c3.9-1,8-3.5,12.3-7.6c4.3-4,8.6-8.8,12.9-14.4
		c4.3-5.6,8.3-11.6,12.1-18c3.8-6.4,7.2-12.6,10.1-18.5c2.9-5.9,5.1-11.3,6.5-16c1.4-4.7,1.8-8.1,1.3-10l-0.9-3.5
		c-6.1,2.1-12.7,5.5-19.8,10.4c-7.1,4.9-14.6,11.8-22.6,20.8c-2.1,2.4-4,2.6-5.7,0.6c-1.7-2-2.9-4.9-3.8-8.6
		c-0.9-3.8-1.2-7.9-1-12.3c0.2-4.4,1.1-7.9,2.8-10.4c1.2-1.7,4.6-4.2,10.2-7.7c5.6-3.4,12.2-6.5,19.6-9.3c7.4-2.8,15-4.6,22.6-5.6
		c7.7-1,14.1,0.2,19.4,3.7c3.4,2.3,5.7,4.5,7.1,6.6c1.3,2.1,2,3.8,1.9,5.2c0,1.8-0.4,3.3-1.2,4.5c-1.7-0.5-3.8-0.8-6.2-1.1
		c-1.9-0.2-4.2-0.2-6.9-0.1c-2.7,0.1-5.7,0.5-9,1.2c2.6,1.9,5.1,4.3,7.7,7.5c2.5,3.1,4.4,6.8,5.5,11.1c1.3,4.9,0.3,11.9-3.1,21
		c-3.4,9-8.1,18.2-14.1,27.5c-6.1,9.3-12.8,17.7-20.2,25.3c-7.4,7.6-14.6,12.3-21.4,14.1c-13.1,3.5-24.5,1.7-34.3-5.3
		c-9.8-7-16.4-17.2-20-30.8c-3.4-12.9-4.6-27.3-3.6-43.2c1-15.9,3.5-32.1,7.7-48.7c4.1-16.6,9.6-33,16.5-49.2
		c6.9-16.2,14.7-30.9,23.4-44.1c8.7-13.2,17.9-24.4,27.7-33.5c9.8-9.1,19.6-15,29.5-17.6c3.7-1,7.6-1,11.8-0.2
		c4.2,0.8,8.2,2,11.8,3.6c2.5-3.6,4.9-6.6,7.3-9C138.4,43.1,140.5,41.7,142.2,41.3z"></path>
	<path d="M340.2,253.2c0.7,2.6,1.4,4.3,2.2,5.1c0.8,0.8,1.5,1.3,2.2,1.3c0.7,0,1.4-0.1,2-0.3c0.6-0.3,1.1-0.3,1.3-0.2
		c1.4,0.8,1.9,2.3,1.7,4.4c-0.2,2.1-2.5,3.8-6.8,4.9c-4.6,1.2-9.5-0.4-14.5-4.8c-5-4.4-9-12.2-11.9-23.4c-2.4-9.2-3.3-20.4-2.6-33.6
		c0.7-13.2,2.3-27.2,4.9-42.1c2.6-14.9,6-30.1,10.1-45.6c4.1-15.4,8.4-30.2,13-44.3c-13.4,19.6-25.2,37.7-35.3,54.3
		c-10.1,16.6-18.8,31.8-26,45.6c-7.2,13.9-13.2,26.3-17.9,37.3c-4.7,11-8.4,20.8-11.2,29.3c-6.6,20.1-9.8,36.4-9.6,48.7
		c0.3,1.1,0,2.3-0.9,3.7c-0.9,1.4-2.9,2.5-5.9,3.3c-4.7,1.2-9.6-0.3-14.7-4.7c-5.1-4.4-9.1-12.2-12-23.4c-2.1-7.9-3.1-17.3-2.9-28.2
		c0.1-10.8,1.1-22.4,2.9-34.7c1.8-12.3,4.2-25.1,7.3-38.5c3-13.3,6.4-26.3,10.1-39c3.7-12.7,7.5-24.8,11.4-36.4
		c4-11.6,7.7-21.9,11.3-30.9c-15.5,7.3-29.2,16.1-41.2,26.5c-11.9,10.4-21.8,21.1-29.6,32.1c-7.8,11-13.3,21.6-16.7,31.8
		c-3.4,10.2-4.2,18.7-2.4,25.6c0.6,2.2,1.2,4.1,1.9,5.9c0.7,1.8,1.4,3.2,2.2,4.4c0.8,1.4,1.6,2.7,2.4,3.9c-4.4-0.2-8.4-1.1-12.1-2.7
		c-3.1-1.5-6.3-3.7-9.4-6.8c-3.1-3.1-5.5-7.6-7-13.7c-2.9-11-1.6-23.4,4-37.2c5.5-13.9,14.1-27.5,25.9-40.9
		c11.7-13.4,26.1-25.7,43.2-36.7c17.1-11,35.7-19.2,55.9-24.5c1.1-0.3,3.2-0.2,6.3,0.2c3.1,0.4,6.3,1.1,9.6,1.9c3.3,0.8,6.3,2,9,3.5
		c2.7,1.5,4.2,3,4.6,4.5c0.3,1.1-0.7,4.7-3,10.8c-2.3,6.1-5.4,14.1-9.2,23.8c-3.9,9.8-8.2,20.8-13,33.1
		c-4.8,12.3-9.5,25.3-14.2,38.9c-4.7,13.6-9,27.4-13.1,41.4c-4,13.9-7.1,27.3-9.3,40c4.8-13.2,10.8-27.8,18.1-43.7
		c7.3-15.9,15.2-32.1,23.7-48.5c8.5-16.4,17.4-32.3,26.7-47.7c9.3-15.4,18.3-29.3,27.1-41.8c8.8-12.4,17-22.6,24.7-30.6
		c7.7-8,14.3-12.7,19.9-14.2c1.1-0.3,3.2-0.2,6.3,0.2c3.1,0.4,6.3,1.1,9.6,1.9c3.3,0.8,6.3,2,9,3.5c2.7,1.5,4.2,3,4.6,4.5
		c0.3,1.1-0.7,4.5-2.8,10.2c-2.2,5.7-5.1,13.1-8.7,22.1c-3.6,9-7.7,19.3-12.2,31c-4.5,11.6-9.1,23.9-13.7,36.9
		c-4.6,12.9-9,26.1-13,39.6s-7.3,26.5-9.9,39c-2.6,12.5-4.2,24.3-4.8,35.4C337,235.5,337.9,245.1,340.2,253.2z"></path>
</g>
<path d="M140.8,296.5c2.1,1.4,4.1,2.4,6.1,3c2.5,0.7,5.2,1.3,8,1.7c3.4-12.4,6.6-21.3,9.5-26.8c2.9-5.5,5.3-9.3,7.1-11.5
	c1.8-2.2,3-3.7,3.7-4.4c0.6-0.7,0.3-2.5-0.9-5.4c-1.2-2.7-3.8-4.8-8-6.3c-4.2-1.5-9.8-0.9-16.9,1.9c-2.3,1.1-4.3,3.4-6.3,7
	c-1.9,3.6-3.6,7.7-5.1,12.2c-1.5,4.5-2.4,9-2.9,13.3c-0.5,4.4-0.2,7.7,0.9,9.9C137.2,293.3,138.7,295.1,140.8,296.5z"></path>
</svg>
